<mxfile host="app.diagrams.net" modified="2023-04-05T16:15:11.956Z" agent="Mozilla/5.0 (Macintosh; Intel Mac OS X 10_15_7) AppleWebKit/605.1.15 (KHTML, like Gecko) Version/16.3 Safari/605.1.15" version="21.1.4" etag="R_oNloNIar3d0O_UL8nG" type="github">
  <diagram name="Page-1" id="jUpCm4wdojlaNxfPyuVb">
    <mxGraphModel>
      <root>
        <mxCell id="0" />
        <mxCell id="1" parent="0" />
      </root>
    </mxGraphModel>
  </diagram>
</mxfile>
